<?xml version="1.0" encoding="UTF-8"?>
<!DOCTYPE svg PUBLIC "-//W3C//DTD SVG 1.1//EN" "http://www.w3.org/Graphics/SVG/1.1/DTD/svg11.dtd">
<!-- Creator: CorelDRAW 2017 -->
<svg xmlns="http://www.w3.org/2000/svg" xml:space="preserve" width="6.684mm" height="7.58mm" version="1.1" style="shape-rendering:geometricPrecision; text-rendering:geometricPrecision; image-rendering:optimizeQuality; fill-rule:evenodd; clip-rule:evenodd"
viewBox="0 0 668 758"
 xmlns:xlink="http://www.w3.org/1999/xlink">
 <defs>
  <style type="text/css">
   <![CDATA[
    .fil0 {fill:#7F49E8;fill-rule:nonzero}
    .fil1 {fill:white;fill-rule:nonzero}
   ]]>
  </style>
 </defs>
 <g id="Camada_x0020_1">
  <metadata id="CorelCorpID_0Corel-Layer"/>
  <g id="_1747321746832">
   <path class="fil0" d="M-21 643c0,51 41,92 92,92l527 0c51,0 92,-41 92,-92l0 -527c0,-51 -41,-92 -92,-92l-527 0c-51,0 -92,41 -92,92l0 527z"/>
   <path class="fil1" d="M274 521l0 -118 103 0c20,0 37,5 49,14 12,9 19,25 19,47 0,11 -2,20 -6,28 -4,7 -9,13 -15,17 -6,4 -14,7 -22,9 -8,2 -17,3 -27,3l-101 0zm-95 -357l0 430 208 0c19,0 38,-2 56,-7 18,-5 35,-12 49,-22 14,-10 26,-23 34,-39 8,-16 13,-35 13,-56 0,-27 -7,-50 -20,-69 -13,-19 -33,-32 -59,-40 19,-9 34,-21 44,-36 10,-14 15,-33 15,-54 0,-20 -3,-37 -10,-51 -7,-14 -16,-25 -28,-33 -12,-8 -27,-14 -43,-18 -17,-4 -36,-5 -56,-5l-202 0zm95 174l0 -101 89 0c8,0 17,1 24,2 8,1 15,4 21,8 6,4 11,9 14,15 4,6 5,15 5,25 0,18 -5,31 -16,39 -11,8 -25,12 -42,12l-96 0z"/>
  </g>
 </g>
</svg>
