<?xml version="1.0" encoding="UTF-8"?>
<!DOCTYPE svg PUBLIC "-//W3C//DTD SVG 1.1//EN" "http://www.w3.org/Graphics/SVG/1.1/DTD/svg11.dtd">
<!-- Creator: CorelDRAW 2017 -->
<svg xmlns="http://www.w3.org/2000/svg" xml:space="preserve" width="6.684mm" height="7.58mm" version="1.1" style="shape-rendering:geometricPrecision; text-rendering:geometricPrecision; image-rendering:optimizeQuality; fill-rule:evenodd; clip-rule:evenodd"
viewBox="0 0 668 758"
 xmlns:xlink="http://www.w3.org/1999/xlink">
 <defs>
  <style type="text/css">
   <![CDATA[
    .fil0 {fill:#CC6699}
    .fil1 {fill:#FEFDFE}
   ]]>
  </style>
 </defs>
 <g id="Camada_x0020_1">
  <metadata id="CorelCorpID_0Corel-Layer"/>
  <g id="_1747323212976">
   <path class="fil0" d="M0 369c0,50 3,77 19,123 8,22 15,35 26,55 3,5 5,8 7,12 11,18 31,42 45,57 14,14 28,25 43,36 20,14 29,19 51,30 31,15 85,31 131,31l2 0c37,0 54,0 92,-10 11,-3 21,-6 31,-9 43,-15 69,-33 103,-59 67,-52 119,-156 119,-244 0,-60 -7,-104 -31,-153 -36,-75 -87,-124 -161,-161 -35,-18 -91,-31 -131,-31 -50,0 -78,3 -125,19 -9,3 -20,8 -29,12 -17,9 -36,18 -51,30 -34,24 -57,47 -81,81 -23,31 -42,73 -51,111 -5,21 -10,46 -10,71z"/>
   <path class="fil1" d="M253 472l-23 13c-35,20 -83,51 -86,95 -2,22 9,43 25,48 40,12 78,-7 104,-35 24,-26 33,-71 20,-113 45,-14 120,5 119,52 0,12 -8,23 -16,28 -5,3 -7,2 -7,8 12,6 61,-26 24,-80 -21,-30 -63,-36 -99,-34 -13,1 -22,4 -33,6 -16,-21 -73,-54 -95,-85 -19,-27 -14,-57 3,-83 17,-28 49,-50 77,-68 27,-17 66,-37 100,-46 36,-10 90,-19 124,0 55,30 0,122 -96,150 -18,5 -43,10 -64,8 -15,-2 -29,-7 -40,-15 -4,-3 -5,-7 -11,-7 -6,18 27,38 45,42 25,6 57,3 82,-2 72,-15 133,-67 141,-131 12,-91 -97,-106 -170,-91 -62,13 -149,57 -194,99 -4,4 -8,8 -12,12 -22,21 -47,55 -48,88 -2,41 47,82 77,103 9,6 18,12 27,19 8,6 20,14 26,20z"/>
   <path class="fil0" d="M268 491c-14,3 -48,29 -58,39 -7,7 -15,17 -21,28 -27,57 37,46 63,9 12,-17 26,-48 15,-75z"/>
  </g>
 </g>
</svg>
