<?xml version="1.0" encoding="UTF-8"?>
<!DOCTYPE svg PUBLIC "-//W3C//DTD SVG 1.1//EN" "http://www.w3.org/Graphics/SVG/1.1/DTD/svg11.dtd">
<!-- Creator: CorelDRAW 2017 -->
<svg xmlns="http://www.w3.org/2000/svg" xml:space="preserve" width="60.9598mm" height="60.9598mm" version="1.1" style="shape-rendering:geometricPrecision; text-rendering:geometricPrecision; image-rendering:optimizeQuality; fill-rule:evenodd; clip-rule:evenodd"
viewBox="0 0 6096 6096"
 xmlns:xlink="http://www.w3.org/1999/xlink">
 <defs>
  <style type="text/css">
   <![CDATA[
    .fil0 {fill:black;fill-rule:nonzero}
   ]]>
  </style>
 </defs>
 <g id="Camada_x0020_1">
  <metadata id="CorelCorpID_0Corel-Layer"/>
  <g>
   <path class="fil0" d="M6095 5780l-430 316 -97 0 -506 -265 -361 265 -108 0 435 -319 -22 -318 -22 -318 -531 -278 -488 359 40 598 3 38 456 239 -139 0 -343 -179 -244 179 -109 0 319 -234 -22 -318 -22 -318 -531 -278 -488 359 43 637 293 153 -139 0 -180 -94 -128 94 -109 0 203 -149 -22 -318 -22 -318 -531 -278 -488 359 43 636 130 68 -140 0 -17 -9 -12 9 -109 0 86 -63 -43 -629 -1 -8 -531 -278 -488 359 42 619 -61 0 -42 -615 -531 -278 -132 97 0 -80 98 -72 -22 -318 -22 -318 -55 -29 0 -73 81 43 488 -359 -43 -636 -527 -276 0 -386 22 324 531 278 488 -359 -22 -318 -22 -318 -531 -278 -467 343 0 -80 433 -318 -22 -318 -22 -318 -390 -204 0 -73 416 218 488 -359 -43 -636 -531 -278 -330 243 0 -80 296 -218 -3 -48 61 0 3 43 531 278 438 -321 191 0 451 236 321 -236 108 0 -396 291 43 636 531 278 488 -359 -36 -533 -7 -104 -401 -210 140 0 288 151 205 -151 109 0 -279 205 43 636 507 266 24 12 488 -359 -22 -318 -22 -318 -238 -125 140 0 125 65 89 -65 109 0 -163 120 43 636 531 278 488 -359 -22 -318 -22 -318 -75 -39 183 0 -47 35 40 595 3 42 531 278 277 -204 0 80 -243 179 43 636 200 105 0 73 -227 -119 -488 359 40 595 3 42 531 278 141 -103 0 80 -107 78 43 636 64 33 0 73 -90 -47 -488 359 43 636 507 266 24 12 4 -3 0 513 -9 -133 -22 -318 -531 -278 -488 359 40 595 3 42 531 278 476 -349 0 80zm-2403 -4606l43 637 349 183 182 95 488 -359 -43 -636 -531 -278 -488 359zm608 969l43 636 531 278 488 -359 -22 -318 -22 -318 -531 -278 -488 359zm17 696l-488 359 43 636 531 278 488 -359 -22 -318 -22 -318 -531 -278zm-960 1413l43 637 507 266 24 12 488 -359 -43 -636 -531 -278 -488 359zm-1098 727l-43 -637 -20 -11 -511 -267 -488 359 40 598 3 38 531 278 488 -359zm-611 -1010l-40 -595 -531 -278 -488 359 43 636 507 266 24 12 488 -359 -3 -41zm474 -1013l-8 -123 -13 -195 -22 -318 -531 -278 -488 359 43 636 531 278 488 -359zm472 -1054l-43 -637 -531 -278 -488 359 40 598 3 38 531 278 488 -359zm137 2023l-33 -491 -10 -146 -531 -278 -488 359 43 636 531 278 488 -359zm3240 -256l-22 -318 -22 -318 -531 -278 -488 359 43 636 531 278 488 -359zm-2631 1225l-43 -636 -531 -278 -488 359 40 595 3 42 531 278 488 -359zm472 -1054l-22 -318 -22 -318 -531 -278 -488 359 43 636 272 142 259 136 488 -359zm1688 884l-43 -637 -531 -278 -488 359 43 636 531 278 488 -359zm-1260 -2574l-531 -278 -488 359 43 636 531 278 488 -359 0 0 -22 -318 0 0 -22 -318 0 0zm-1080 85l-531 -278 -488 359 43 636 531 278 488 -359 -22 -318 -22 -318zm515 -418l-43 -636 -531 -278 -488 359 40 595 3 42 531 278 488 -359zm2160 -171l-43 -637 -531 -278 -488 359 43 636 531 278 488 -359zm-5143 3778l488 -359 -22 -318 -22 -318 -531 -278 -488 359 40 595 3 42 531 278zm335 -3078l488 -359 -22 -318 -22 -318 -531 -278 -488 359 40 595 3 42 531 278zm472 -1054l488 -359 -43 -636 -531 -278 -488 359 43 636 507 266 24 12z"/>
  </g>
 </g>
</svg>
